<mxfile>
  <diagram>
    <mxGraphModel dx="4000" dy="4000" grid="1" gridSize="10" guides="1" tooltips="1" connect="1" arrows="1" fold="1" pageScale="1" pageWidth="4000" pageHeight="4000" math="0" shadow="0">
      <root>
        <mxCell id="0"/>
        <mxCell id="1" parent="0"/>
        <object label="Webex EQ CODEC, CS-CODEC-EQ-NR++" type="matrix" id="2358212344799856911">
          <mxCell id="4166776054286295345" value="Webex EQ CODEC, CS-CODEC-EQ-NR++" style="rounded=0;whiteSpace=wrap;html=1;" parent="1" connectable="" edge="" vertex="1" source="" target="">
            <mxGeometry x="1900" y="3400" width="200" height="1400" relative="" as="geometry"/>
          </mxCell>
        </object>
        <object label="Webex EQ CODEC, CS-CODEC-EQ-NR++" type="DTP" id="8932352201572080387">
          <mxCell id="8596583661748730663" value="Webex EQ CODEC, CS-CODEC-EQ-NR++" style="rounded=0;whiteSpace=wrap;html=1;" parent="1" connectable="" edge="" vertex="1" source="" target="">
            <mxGeometry x="1500" y="3400" width="160" height="90" relative="" as="geometry"/>
          </mxCell>
        </object>
        <object label="Webex EQ CODEC, CS-CODEC-EQ-NR++" type="DTP" id="5991521434206175798">
          <mxCell id="5239744159834662215" value="Webex EQ CODEC, CS-CODEC-EQ-NR++" style="rounded=0;whiteSpace=wrap;html=1;" parent="1" connectable="" edge="" vertex="1" source="" target="">
            <mxGeometry x="1500" y="3540" width="160" height="90" relative="" as="geometry"/>
          </mxCell>
        </object>
        <object label="DA HD 4K Plus, 60-1607-01" type="DTP" id="5274672207985525113">
          <mxCell id="9445590860222169855" value="DA HD 4K Plus, 60-1607-01" style="rounded=0;whiteSpace=wrap;html=1;" parent="1" connectable="" edge="" vertex="1" source="" target="">
            <mxGeometry x="1500" y="3680" width="160" height="90" relative="" as="geometry"/>
          </mxCell>
        </object>
        <object label="232-ATSC 4K HDTV, 5114-001" type="DTP" id="1177644766461831756">
          <mxCell id="9271082981891504284" value="232-ATSC 4K HDTV, 5114-001" style="rounded=0;whiteSpace=wrap;html=1;" parent="1" connectable="" edge="" vertex="1" source="" target="">
            <mxGeometry x="1500" y="3820" width="160" height="90" relative="" as="geometry"/>
          </mxCell>
        </object>
        <object label="DTP 4K 230 Tx, 60-1271-12" type="DTP" id="1111302428458179490">
          <mxCell id="9427465211012060639" value="DTP 4K 230 Tx, 60-1271-12" style="rounded=0;whiteSpace=wrap;html=1;" parent="1" connectable="" edge="" vertex="1" source="" target="">
            <mxGeometry x="1500" y="4380" width="160" height="90" relative="" as="geometry"/>
          </mxCell>
        </object>
        <object label="DTP 4K 230 Tx, 60-1271-12" type="DTP" id="6556686577864528870">
          <mxCell id="7328094502894650759" value="DTP 4K 230 Tx, 60-1271-12" style="rounded=0;whiteSpace=wrap;html=1;" parent="1" connectable="" edge="" vertex="1" source="" target="">
            <mxGeometry x="1500" y="4520" width="160" height="90" relative="" as="geometry"/>
          </mxCell>
        </object>
        <object label="DTP 4K 230 Tx, 60-1271-12" type="DTP" id="9112876413829497009">
          <mxCell id="8947140599604315613" value="DTP 4K 230 Tx, 60-1271-12" style="rounded=0;whiteSpace=wrap;html=1;" parent="1" connectable="" edge="" vertex="1" source="" target="">
            <mxGeometry x="1500" y="4660" width="160" height="90" relative="" as="geometry"/>
          </mxCell>
        </object>
        <object label="DTP 4K 230 Tx, 60-1271-12" type="DTP" id="9914132872364590996">
          <mxCell id="4720996853571335111" value="DTP 4K 230 Tx, 60-1271-12" style="rounded=0;whiteSpace=wrap;html=1;" parent="1" connectable="" edge="" vertex="1" source="" target="">
            <mxGeometry x="1500" y="4800" width="160" height="90" relative="" as="geometry"/>
          </mxCell>
        </object>
        <object label="TEST" type="DTP" id="1885376502749768880">
          <mxCell id="1135256175790653870" value="TEST" style="rounded=0;whiteSpace=wrap;html=1;" parent="1" connectable="" edge="" vertex="1" source="" target="">
            <mxGeometry x="1100" y="3400" width="160" height="90" relative="" as="geometry"/>
          </mxCell>
        </object>
        <object label="OneLink Bridge" type="DTP" id="9741265322594625749">
          <mxCell id="5264039311582910349" value="OneLink Bridge" style="rounded=0;whiteSpace=wrap;html=1;" parent="1" connectable="" edge="" vertex="1" source="" target="">
            <mxGeometry x="1100" y="3680" width="160" height="90" relative="" as="geometry"/>
          </mxCell>
        </object>
        <object label="BYOD" type="DTP" id="1686478328331863590">
          <mxCell id="6121385954470204539" value="BYOD" style="rounded=0;whiteSpace=wrap;html=1;" parent="1" connectable="" edge="" vertex="1" source="" target="">
            <mxGeometry x="1100" y="4520" width="160" height="90" relative="" as="geometry"/>
          </mxCell>
        </object>
        <object label="BYOD" type="DTP" id="4014717964817433340">
          <mxCell id="3166544786939434101" value="BYOD" style="rounded=0;whiteSpace=wrap;html=1;" parent="1" connectable="" edge="" vertex="1" source="" target="">
            <mxGeometry x="1100" y="4660" width="160" height="90" relative="" as="geometry"/>
          </mxCell>
        </object>
        <object label="BYOD" type="DTP" id="6372703600006500912">
          <mxCell id="5226684404345781666" value="BYOD" style="rounded=0;whiteSpace=wrap;html=1;" parent="1" connectable="" edge="" vertex="1" source="" target="">
            <mxGeometry x="1100" y="4800" width="160" height="90" relative="" as="geometry"/>
          </mxCell>
        </object>
        <object label="BYOD" type="DTP" id="7393278651352683829">
          <mxCell id="6339903954854846197" value="BYOD" style="rounded=0;whiteSpace=wrap;html=1;" parent="1" connectable="" edge="" vertex="1" source="" target="">
            <mxGeometry x="1100" y="4940" width="160" height="90" relative="" as="geometry"/>
          </mxCell>
        </object>
        <object label="Vaddio Roboshot 12E, 999-99600-100" type="DTP" id="4345485738268042432">
          <mxCell id="1699661951082960514" value="Vaddio Roboshot 12E, 999-99600-100" style="rounded=0;whiteSpace=wrap;html=1;" parent="1" connectable="" edge="" vertex="1" source="" target="">
            <mxGeometry x="700" y="3400" width="160" height="90" relative="" as="geometry"/>
          </mxCell>
        </object>
        <object label="Webex EQ CODEC, CS-CODEC-EQ-NR++" type="DTP" id="5190595259285900400">
          <mxCell id="6906152220058487868" value="Webex EQ CODEC, CS-CODEC-EQ-NR++" style="rounded=0;whiteSpace=wrap;html=1;" parent="1" connectable="" edge="" vertex="1" source="" target="">
            <mxGeometry x="2300" y="3400" width="160" height="90" relative="" as="geometry"/>
          </mxCell>
        </object>
        <object label="Webex EQ CODEC, CS-CODEC-EQ-NR++" type="DTP" id="6360201901452298677">
          <mxCell id="7589502506346393777" value="Webex EQ CODEC, CS-CODEC-EQ-NR++" style="rounded=0;whiteSpace=wrap;html=1;" parent="1" connectable="" edge="" vertex="1" source="" target="">
            <mxGeometry x="2300" y="3540" width="160" height="90" relative="" as="geometry"/>
          </mxCell>
        </object>
        <object label="DA HD 4K Plus, 60-1607-01" type="DTP" id="7200437932552399660">
          <mxCell id="6637320069250142992" value="DA HD 4K Plus, 60-1607-01" style="rounded=0;whiteSpace=wrap;html=1;" parent="1" connectable="" edge="" vertex="1" source="" target="">
            <mxGeometry x="2300" y="3680" width="160" height="90" relative="" as="geometry"/>
          </mxCell>
        </object>
        <object label="232-ATSC 4K HDTV, 5114-001" type="DTP" id="9524905432576351059">
          <mxCell id="956402443844805856" value="232-ATSC 4K HDTV, 5114-001" style="rounded=0;whiteSpace=wrap;html=1;" parent="1" connectable="" edge="" vertex="1" source="" target="">
            <mxGeometry x="2300" y="3820" width="160" height="90" relative="" as="geometry"/>
          </mxCell>
        </object>
        <object label="Test" type="DTP" id="2153526018234585743">
          <mxCell id="4431594683560670132" value="Test" style="rounded=0;whiteSpace=wrap;html=1;" parent="1" connectable="" edge="" vertex="1" source="" target="">
            <mxGeometry x="2300" y="3960" width="160" height="90" relative="" as="geometry"/>
          </mxCell>
        </object>
        <object label="DTP 4K 230 Tx, 60-1271-12" type="DTP" id="1410092997016488169">
          <mxCell id="3574638226551350597" value="DTP 4K 230 Tx, 60-1271-12" style="rounded=0;whiteSpace=wrap;html=1;" parent="1" connectable="" edge="" vertex="1" source="" target="">
            <mxGeometry x="2300" y="4240" width="160" height="90" relative="" as="geometry"/>
          </mxCell>
        </object>
        <object label="DTP 4K 230 Tx, 60-1271-12" type="DTP" id="159996261002870944">
          <mxCell id="7017215556662473019" value="DTP 4K 230 Tx, 60-1271-12" style="rounded=0;whiteSpace=wrap;html=1;" parent="1" connectable="" edge="" vertex="1" source="" target="">
            <mxGeometry x="2300" y="4380" width="160" height="90" relative="" as="geometry"/>
          </mxCell>
        </object>
        <object label="DTP 4K 230 Tx, 60-1271-12" type="DTP" id="2475287684217394977">
          <mxCell id="1328736167727828067" value="DTP 4K 230 Tx, 60-1271-12" style="rounded=0;whiteSpace=wrap;html=1;" parent="1" connectable="" edge="" vertex="1" source="" target="">
            <mxGeometry x="2300" y="4520" width="160" height="90" relative="" as="geometry"/>
          </mxCell>
        </object>
        <object label="DTP 4K 230 Tx, 60-1271-12" type="DTP" id="1287954802629713855">
          <mxCell id="2464643125812119883" value="DTP 4K 230 Tx, 60-1271-12" style="rounded=0;whiteSpace=wrap;html=1;" parent="1" connectable="" edge="" vertex="1" source="" target="">
            <mxGeometry x="2300" y="4660" width="160" height="90" relative="" as="geometry"/>
          </mxCell>
        </object>
        <object label="75 UHD Samsung" type="DTP" id="103927801403165121">
          <mxCell id="2510869684042530577" value="75 UHD Samsung" style="rounded=0;whiteSpace=wrap;html=1;" parent="1" connectable="" edge="" vertex="1" source="" target="">
            <mxGeometry x="2700" y="3400" width="160" height="90" relative="" as="geometry"/>
          </mxCell>
        </object>
        <object label="75 UHD Samsung" type="DTP" id="5748497783669547549">
          <mxCell id="8937354684784409313" value="75 UHD Samsung" style="rounded=0;whiteSpace=wrap;html=1;" parent="1" connectable="" edge="" vertex="1" source="" target="">
            <mxGeometry x="2700" y="3540" width="160" height="90" relative="" as="geometry"/>
          </mxCell>
        </object>
        <object label="75 UHD Samsung" type="DTP" id="5274480827055237528">
          <mxCell id="8562379263259591867" value="75 UHD Samsung" style="rounded=0;whiteSpace=wrap;html=1;" parent="1" connectable="" edge="" vertex="1" source="" target="">
            <mxGeometry x="2700" y="3680" width="160" height="90" relative="" as="geometry"/>
          </mxCell>
        </object>
        <object label="75 UHD Samsung" type="DTP" id="160207728957774599">
          <mxCell id="3046044830436143039" value="75 UHD Samsung" style="rounded=0;whiteSpace=wrap;html=1;" parent="1" connectable="" edge="" vertex="1" source="" target="">
            <mxGeometry x="2700" y="3820" width="160" height="90" relative="" as="geometry"/>
          </mxCell>
        </object>
      </root>
    </mxGraphModel>
  </diagram>
</mxfile>
